<svg width="341" height="110" viewBox="0 0 341 110" fill="none" xmlns="http://www.w3.org/2000/svg">
<path d="M17.1249 103.958L16.8092 108.451H0L0.315666 103.958H7.33922L13.4158 6.04226H6.39223L6.7079 1.54929H19.2556L32.1979 84.7465L55.4783 1.54929H68.026L67.6314 6.04226H60.5289L54.4524 103.958H61.5549L61.3181 108.451H43.1673L43.483 103.958H50.112L56.0307 9.60564L32.2768 94.3521H29.5937L16.3357 9.4507L10.4959 103.958H17.1249Z" fill="#EBFF00"/>
<path d="M97.9465 0C104.575 0 109.573 4.38967 112.941 13.169C116.308 21.9484 117.991 33.1033 117.991 46.6338C117.991 52.6244 117.623 58.615 116.886 64.6056C116.202 70.5962 115.124 76.3286 113.651 81.8028C112.23 87.277 110.52 92.1315 108.521 96.3662C106.522 100.498 104.102 103.803 101.261 106.282C98.4199 108.761 95.3685 110 92.1066 110C85.6355 110 80.6111 105.61 77.0336 96.831C73.5087 88.0516 71.7462 76.8967 71.7462 63.3662C71.7462 52.5211 72.7458 42.3474 74.745 32.8451C76.7968 23.3427 79.8483 15.493 83.8993 9.29577C88.003 3.09859 92.6854 0 97.9465 0ZM97.7886 4.95775C93.4745 4.95775 89.6339 7.95305 86.2668 13.9437C82.8997 19.831 80.4007 27.2676 78.7697 36.2535C77.1388 45.1362 76.3233 54.5352 76.3233 64.4507C76.3233 77.4648 77.7175 87.4836 80.5059 94.507C83.2943 101.531 87.2138 105.042 92.2645 105.042C95.579 105.042 98.6041 103.286 101.34 99.7746C104.076 96.1596 106.285 91.4601 107.969 85.6761C109.705 79.892 111.047 73.5399 111.994 66.6197C112.941 59.6995 113.414 52.7277 113.414 45.7042C113.414 33 112.099 23.0329 109.468 15.8028C106.89 8.57277 102.997 4.95775 97.7886 4.95775Z" fill="#EBFF00"/>
<path d="M121.843 108.451L122.158 103.958H129.182L135.259 6.04226H128.235L128.551 1.54929H146.938C153.357 1.54929 158.144 4.02817 161.301 8.98592C164.458 13.8404 166.036 20.4507 166.036 28.8169C166.036 38.939 164.168 47.1502 160.433 53.4507C156.75 59.6479 151.042 62.7465 143.308 62.7465H136.127L133.601 103.958H141.177L140.862 108.451H121.843ZM146.938 6.04226H139.678L136.442 58.2535H143.86C149.858 58.2535 154.277 55.6197 157.118 50.3521C159.959 44.9812 161.38 37.7512 161.38 28.662C161.38 13.5822 156.566 6.04226 146.938 6.04226Z" fill="#EBFF00"/>
<path d="M167.081 108.451L167.397 103.958H174.42L180.497 6.04226H173.473L173.789 1.54929H210.248L208.433 30.3662H205.75L206.46 19.3662C206.881 13.7887 206.539 10.1737 205.434 8.52113C204.382 6.86855 202.357 6.04226 199.358 6.04226H184.916L178.84 103.958H187.757L187.441 108.451H167.081Z" fill="#EBFF00"/>
<path d="M237.091 69.5634L231.172 12.7042L218.23 69.5634H237.091ZM216.257 108.451H201.894L202.21 103.958H207.497L230.936 1.54929H234.566L245.219 103.958H250.822L250.507 108.451H234.408L234.724 103.958H240.642L237.565 74.0563H217.204L210.338 103.958H216.494L216.257 108.451Z" fill="#EBFF00"/>
<path d="M260.879 108.451L261.194 103.958H268.613L274.689 6.04226H265.061C262.326 6.04226 260.484 6.86855 259.537 8.52113C258.59 10.1737 257.933 13.7887 257.564 19.3662L256.696 32.5352H254.013L255.986 1.54929H298.443L296.47 32.5352H293.787L294.576 19.3662C294.944 13.7887 294.734 10.1737 293.945 8.52113C293.208 6.86855 291.446 6.04226 288.657 6.04226H279.109L273.032 103.958H280.45L280.134 108.451H260.879Z" fill="#EBFF00"/>
<path d="M305.188 1.54929H323.733L323.418 6.04226H316.315L313.869 46.0141H321.129C327.442 46.0141 332.204 48.338 335.413 52.9859C338.622 57.6338 340.227 64.1925 340.227 72.662C340.227 83.7136 338.201 92.4413 334.15 98.8451C330.152 105.249 324.417 108.451 316.946 108.451H298.48L298.796 103.958H305.819L311.896 6.04226H304.872L305.188 1.54929ZM310.239 103.958H317.578C323.523 103.958 327.995 101.169 330.994 95.5916C334.045 89.9108 335.571 82.3193 335.571 72.8169C335.571 65.7934 334.361 60.3193 331.941 56.3944C329.573 52.4695 325.943 50.507 321.05 50.507H313.553L310.239 103.958Z" fill="#EBFF00"/>
</svg>
