<svg width="466" height="110" viewBox="0 0 466 110" fill="none" xmlns="http://www.w3.org/2000/svg">
<path d="M0 108.451L0.315666 103.958H7.33923L13.4158 6.04226H6.39224L6.7079 1.54929H24.8587L24.4641 6.04226H17.8351L14.9941 51.4366H42.6938L45.5348 6.04226H38.9058L39.2215 1.54929H57.3723L57.0566 6.04226H49.9541L43.8776 103.958H50.9801L50.6644 108.451H32.5136L32.8293 103.958H39.4582L42.4571 55.9296H14.7574L11.7586 103.958H18.3875L18.1508 108.451H0Z" fill="#EBFF00"/>
<path d="M58.725 108.451L59.0406 103.958H66.0642L72.1408 6.04226H65.1172L65.4329 1.54929H103.471L101.656 30.3662H98.9724L99.6826 19.3662C99.9983 14.0986 99.63 10.5869 98.5778 8.83099C97.5256 6.97184 95.5527 6.04226 92.659 6.04226H76.5601L73.7191 51.7465L91.7121 50.8169L91.3175 56.8592L73.4823 56.0845L70.4835 103.958H88.0819C90.8177 103.958 92.7117 102.925 93.7639 100.859C94.8687 98.7934 95.579 95.1268 95.8946 89.8592L96.6049 78.8592H99.288L97.473 108.451H58.725Z" fill="#EBFF00"/>
<path d="M142.898 103.958L142.582 108.451H125.773L126.089 103.958H133.112L139.189 6.04226H132.165L132.481 1.54929H145.029L157.971 84.7465L181.251 1.54929H193.799L193.405 6.04226H186.302L180.226 103.958H187.328L187.091 108.451H168.94L169.256 103.958H175.885L181.804 9.60564L158.05 94.3521H155.367L142.109 9.4507L136.269 103.958H142.898Z" fill="#EBFF00"/>
<path d="M223.72 0C230.349 0 235.347 4.38967 238.714 13.169C242.081 21.9484 243.764 33.1033 243.764 46.6338C243.764 52.6244 243.396 58.615 242.66 64.6056C241.976 70.5962 240.897 76.3286 239.424 81.8028C238.003 87.277 236.294 92.1315 234.294 96.3662C232.295 100.498 229.875 103.803 227.034 106.282C224.193 108.761 221.142 110 217.88 110C211.409 110 206.384 105.61 202.807 96.831C199.282 88.0516 197.519 76.8967 197.519 63.3662C197.519 52.5211 198.519 42.3474 200.518 32.8451C202.57 23.3427 205.621 15.493 209.672 9.29577C213.776 3.09859 218.459 0 223.72 0ZM223.562 4.95775C219.248 4.95775 215.407 7.95305 212.04 13.9437C208.673 19.831 206.174 27.2676 204.543 36.2535C202.912 45.1362 202.096 54.5352 202.096 64.4507C202.096 77.4648 203.491 87.4836 206.279 94.507C209.067 101.531 212.987 105.042 218.038 105.042C221.352 105.042 224.377 103.286 227.113 99.7746C229.849 96.1596 232.058 91.4601 233.742 85.6761C235.478 79.892 236.82 73.5399 237.767 66.6197C238.714 59.6995 239.187 52.7277 239.187 45.7042C239.187 33 237.872 23.0329 235.241 15.8028C232.663 8.57277 228.77 4.95775 223.562 4.95775Z" fill="#EBFF00"/>
<path d="M247.616 108.451L247.932 103.958H254.955L261.032 6.04226H254.008L254.324 1.54929H272.711C279.13 1.54929 283.918 4.02817 287.074 8.98592C290.231 13.8404 291.809 20.4507 291.809 28.8169C291.809 38.939 289.941 47.1502 286.206 53.4507C282.523 59.6479 276.815 62.7465 269.081 62.7465H261.9L259.374 103.958H266.95L266.635 108.451H247.616ZM272.711 6.04226H265.451L262.215 58.2535H269.634C275.631 58.2535 280.051 55.6197 282.892 50.3521C285.733 44.9812 287.153 37.7512 287.153 28.662C287.153 13.5822 282.339 6.04226 272.711 6.04226Z" fill="#EBFF00"/>
<path d="M292.854 108.451L293.17 103.958H300.193L306.27 6.04226H299.246L299.562 1.54929H336.021L334.206 30.3662H331.523L332.233 19.3662C332.654 13.7887 332.312 10.1737 331.208 8.52113C330.155 6.86855 328.13 6.04226 325.131 6.04226H310.689L304.613 103.958H313.53L313.215 108.451H292.854Z" fill="#EBFF00"/>
<path d="M362.864 69.5634L356.945 12.7042L344.003 69.5634H362.864ZM342.03 108.451H327.667L327.983 103.958H333.27L356.709 1.54929H360.339L370.993 103.958H376.596L376.28 108.451H360.181L360.497 103.958H366.415L363.338 74.0563H342.977L336.111 103.958H342.267L342.03 108.451Z" fill="#EBFF00"/>
<path d="M386.652 108.451L386.968 103.958H394.386L400.462 6.04226H390.835C388.099 6.04226 386.257 6.86855 385.31 8.52113C384.363 10.1737 383.706 13.7887 383.337 19.3662L382.469 32.5352H379.786L381.759 1.54929H424.216L422.243 32.5352H419.56L420.349 19.3662C420.718 13.7887 420.507 10.1737 419.718 8.52113C418.981 6.86855 417.219 6.04226 414.431 6.04226H404.882L398.805 103.958H406.223L405.908 108.451H386.652Z" fill="#EBFF00"/>
<path d="M430.961 1.54929H449.506L449.191 6.04226H442.088L439.642 46.0141H446.902C453.216 46.0141 457.977 48.338 461.186 52.9859C464.395 57.6338 466 64.1925 466 72.662C466 83.7136 463.974 92.4413 459.923 98.8451C455.925 105.249 450.19 108.451 442.72 108.451H424.253L424.569 103.958H431.592L437.669 6.04226H430.645L430.961 1.54929ZM436.012 103.958H443.351C449.296 103.958 453.768 101.169 456.767 95.5916C459.818 89.9108 461.344 82.3193 461.344 72.8169C461.344 65.7934 460.134 60.3193 457.714 56.3944C455.346 52.4695 451.716 50.507 446.823 50.507H439.326L436.012 103.958Z" fill="#EBFF00"/>
</svg>
